# xmcd CD database file
# Copyright (C) 1993-1998 Ti Kan
# 
# Track frame offsets:
#     150
#     13920
#     27152
#     41735
#     54945
#     65770
#     80150
#     93422
#     106852
#     119977
#     132702
#     146142
#     158990
#     170987
# 
# Disc length: 2450 seconds
# 
# Revision: 1
# Processed by: cddbd v1.4b41PL1 Copyright (c) Steve Scherf et al.
# Submitted via: DiscPlay 4.0.4
# 
DISCID=d809900e
DTITLE=Chuck Willis - My Story
DYEAR=1900
DGENRE=
TTITLE0=Don't Deceive Me (Please Don't Go)
TTITLE1=I Feel So Bad
TTITLE2=My Story
TTITLE3=Two Spoons Of Tears
TTITLE4=Caldonia (What Makes Your Big Head So Hard?)
TTITLE5=You're Still My Baby
TTITLE6=Need One More Chance
TTITLE7=Going To The River
TTITLE8=Change My Mind
TTITLE9=I Rule My House
TTITLE10=Charged With Cheating
TTITLE11=It Ain't Right To Treat Me Wrong
TTITLE12=My Hearts Been Broke Again
TTITLE13=Salty Tears
EXTD=
EXTT0=
EXTT1=
EXTT2=
EXTT3=
EXTT4=
EXTT5=
EXTT6=
EXTT7=
EXTT8=
EXTT9=
EXTT10=
EXTT11=
EXTT12=
EXTT13=
PLAYORDER=
